<?xml version="1.0" standalone="no"?><!DOCTYPE svg PUBLIC "-//W3C//DTD SVG 1.1//EN" "http://www.w3.org/Graphics/SVG/1.1/DTD/svg11.dtd"><svg t="1751619319208" class="icon" viewBox="0 0 1024 1024" version="1.1" xmlns="http://www.w3.org/2000/svg" p-id="19601" xmlns:xlink="http://www.w3.org/1999/xlink" width="256" height="256"><path d="M513.1776 1021.78304c190.65344-76.25728 317.75744-184.29952 381.30176-317.75232 82.62656-158.8736 101.67296-343.17312 63.54944-559.24736L513.1776 4.98176 68.3264 151.1424c-38.13376 209.7152-19.06688 394.01984 57.1904 552.89344 69.90848 133.44768 197.01248 241.49504 387.6608 317.7472z m-330.46528-343.168c-69.89824-139.80672-88.97024-298.69056-57.19552-482.98496l387.6608-127.104 387.65568 127.104c25.4208 184.2944 6.3488 343.17824-63.55456 476.6208-57.1904 114.39616-165.22752 203.3664-324.10112 273.27488-165.22752-63.54432-273.26976-158.8736-330.46528-266.91072z" fill="#0b988f" p-id="19602"></path><path d="M226.66752 624V340.74112h53.31968v283.25888H226.66752zM499.73248 519.85408l51.69664 17.5872c-7.92576 30.91968-21.10464 53.87264-39.54176 68.88448-18.42688 14.99648-41.82016 22.50752-70.15424 22.50752-35.06688 0-63.88736-12.8512-86.45632-38.5536-22.5792-25.69216-33.8688-60.83072-33.8688-105.39008 0-47.13984 11.35104-83.75808 34.048-109.83936 22.69184-26.08128 52.5312-39.13216 89.5232-39.13216 32.30208 0 58.53696 10.24512 78.70976 30.72512 12.01152 12.1088 21.0176 29.49632 27.02336 52.16256L497.93536 432.3328c-3.1232-14.68928-9.63584-26.27584-19.54816-34.77504-9.91232-8.50432-21.9392-12.75392-36.11648-12.75392-19.57376 0-35.456 7.53664-47.6416 22.6048s-18.28864 39.48544-18.28864 73.23648c0 35.8144 6.01088 61.31712 18.01728 76.5184 12.01152 15.2064 27.6224 22.79936 46.82752 22.79936 14.17728 0 26.35776-4.81792 36.56192-14.48448 10.20928-9.68192 17.54112-24.8832 21.98528-45.62432zM597.18144 624V340.74112h85.5552c32.41984 0 53.5552 1.41312 63.40096 4.25472 15.1296 4.25984 27.80672 13.49632 38.02112 27.72992 10.19904 14.2336 15.29856 32.62976 15.29856 55.15776 0 17.39264-2.93888 32.01536-8.82688 43.85792-5.88288 11.8528-13.35808 21.15584-22.4256 27.92448-9.06752 6.75328-18.28352 11.2384-27.648 13.42464-12.71808 2.7136-31.16032 4.05504-55.296 4.05504h-34.75968v106.84416h-53.31968v0.01024z m53.31456-235.33568v80.384h29.17888c21.01248 0 35.06688-1.4848 42.14784-4.4544 7.08096-2.95936 12.62592-7.59808 16.65536-13.91104 4.0192-6.30784 6.03648-13.6448 6.03648-22.02624 0-10.31168-2.83136-18.80576-8.46848-25.50272-5.63712-6.69184-12.78976-10.88-21.4272-12.55424-6.36416-1.28512-19.15392-1.93024-38.36928-1.93024h-25.7536v-0.00512z" fill="#0b988f" p-id="19603"></path></svg>